# Blender 4.3.2
# www.blender.org
mtllib smoll_square.mtl
o Cube.001
v 2.121000 1.187500 -2.121000
v 0.000000 0.812500 0.000000
v 2.121000 1.187500 2.121000
v -2.121000 1.187500 -2.121000
v -2.121000 1.187500 2.121000
v 0.000000 1.562500 0.000000
vn -0.0000 -0.9847 0.1741
vn -0.1741 -0.9847 -0.0000
vn 0.1741 0.9847 -0.0000
vn 0.1741 -0.9847 -0.0000
vn -0.0000 -0.9847 -0.1741
vn -0.0000 0.9847 0.1741
vn -0.0000 0.9847 -0.1741
vn -0.1741 0.9847 -0.0000
vt 0.375000 0.750000
vt 0.625000 0.750000
vt 0.625000 1.000000
vt 0.375000 0.000000
vt 0.625000 0.000000
vt 0.625000 0.250000
vt 0.625000 0.500000
vt 0.000000 0.000000
vt 0.375000 0.500000
vt 0.375000 0.250000
s 0
usemtl Material.001
f 2/1/1 3/2/1 5/3/1
f 2/4/2 5/5/2 4/6/2
f 3/2/3 1/7/3 6/8/3
f 2/9/4 1/7/4 3/2/4
f 2/10/5 4/6/5 1/7/5
f 5/3/6 3/2/6 6/8/6
f 1/7/7 4/6/7 6/8/7
f 4/6/8 5/3/8 6/8/8
