# Blender 4.3.2
# www.blender.org
mtllib spike_guy_ig.mtl
o Cube.001-c
v 0.000005 0.190176 1.499667
v 4.000005 0.377676 0.000001
v 0.000005 0.377676 1.000001
v -3.999995 0.377676 4.000001
v -3.999995 0.377676 2.000001
v 0.000005 0.563716 1.500001
v 0.000005 0.377676 2.000001
v -3.999995 0.002676 2.999332
v -3.999995 0.749757 3.000001
vn -0.0869 0.9337 -0.3474
vn 0.1718 0.9233 0.3435
vn 0.1728 -0.9223 0.3456
vn -0.0875 -0.9327 -0.3500
vn -1.0000 -0.0000 -0.0000
vt 0.000000 0.000000
s 0
f 9/1/1 6/1/1 3/1/1 5/1/1
f 9/1/2 4/1/2 7/1/2 6/1/2
f 6/1/2 7/1/2 2/1/2
f 6/1/1 2/1/1 3/1/1
f 7/1/3 1/1/3 2/1/3
f 3/1/4 2/1/4 1/1/4
f 8/1/4 5/1/4 3/1/4 1/1/4
f 4/1/3 8/1/3 1/1/3 7/1/3
f 4/1/5 9/1/5 5/1/5 8/1/5
f 7/1/2 6/1/2 4/1/2
l 3 9
l 1 5
l 7 8
l 8 9
